<svg xmlns="http://www.w3.org/2000/svg" viewBox="0 0 16 16" width="16" height="16">
  <path fill="currentColor" d="M11.013 1.427a1.75 1.75 0 0 1 2.474 0l1.086 1.086a1.75 1.75 0 0 1 0 2.474l-8.61 8.61c-.21.21-.47.364-.756.445l-3.251.93a.75.75 0 0 1-.927-.928l.929-3.25c.081-.286.235-.547.445-.758l8.61-8.61Zm1.414 1.06a.25.25 0 0 0-.354 0L10.811 3.75l1.439 1.44 1.263-1.263a.25.25 0 0 0 0-.354l-1.086-1.086ZM11.189 6.25 9.75 4.81 3.23 11.33a.25.25 0 0 0-.063.108l-.652 2.278 2.278-.651a.25.25 0 0 0 .108-.064L11.19 6.25Z"/>
</svg>
